<svg xmlns="http://www.w3.org/2000/svg" width="900" height="900" viewBox="0 0 900 900">
  <defs>
    <style>
      .hex { fill: rgba(4,20,79,0.03); stroke: #04144F; stroke-width: 0.8; }
      .hex-bold { fill: rgba(4,20,79,0.045); stroke: #04144F; stroke-width: 1.2; }
      .line { stroke: #04144F; stroke-width: 0.6; }
      .dot { fill: #04144F; }
      .dot-ring { fill: none; stroke: #04144F; stroke-width: 0.6; }
    </style>
    <radialGradient id="fadeBottomLeft" cx="0" cy="1" r="0.8" fx="0" fy="1">
      <stop offset="0%" stop-color="white" stop-opacity="1"/>
      <stop offset="50%" stop-color="white" stop-opacity="0.5"/>
      <stop offset="100%" stop-color="white" stop-opacity="0"/>
    </radialGradient>
    <radialGradient id="fadeTopRight" cx="1" cy="0" r="0.8" fx="1" fy="0">
      <stop offset="0%" stop-color="white" stop-opacity="1"/>
      <stop offset="50%" stop-color="white" stop-opacity="0.5"/>
      <stop offset="100%" stop-color="white" stop-opacity="0"/>
    </radialGradient>
    <radialGradient id="fadeBottomRight" cx="1" cy="1" r="0.7" fx="1" fy="1">
      <stop offset="0%" stop-color="white" stop-opacity="1"/>
      <stop offset="50%" stop-color="white" stop-opacity="0.4"/>
      <stop offset="100%" stop-color="white" stop-opacity="0"/>
    </radialGradient>
    <radialGradient id="fadeTopLeft" cx="0" cy="0" r="0.6" fx="0" fy="0">
      <stop offset="0%" stop-color="white" stop-opacity="1"/>
      <stop offset="50%" stop-color="white" stop-opacity="0.3"/>
      <stop offset="100%" stop-color="white" stop-opacity="0"/>
    </radialGradient>
    <mask id="maskBL"><rect width="900" height="900" fill="url(#fadeBottomLeft)"/></mask>
    <mask id="maskTR"><rect width="900" height="900" fill="url(#fadeTopRight)"/></mask>
    <mask id="maskBR"><rect width="900" height="900" fill="url(#fadeBottomRight)"/></mask>
    <mask id="maskTL"><rect width="900" height="900" fill="url(#fadeTopLeft)"/></mask>
  </defs>

  <!-- Bottom-left cluster -->
  <g mask="url(#maskBL)">
    <g opacity="0.12">
      <!-- Core hex grid -->
      <polygon class="hex" points="80,680 120,657 120,611 80,588 40,611 40,657"/>
      <polygon class="hex" points="160,720 200,697 200,651 160,628 120,651 120,697"/>
      <polygon class="hex-bold" points="80,760 120,737 120,691 80,668 40,691 40,737"/>
      <polygon class="hex" points="0,720 40,697 40,651 0,628 -40,651 -40,697"/>
      <polygon class="hex" points="160,800 200,777 200,731 160,708 120,731 120,777"/>
      <polygon class="hex-bold" points="240,760 280,737 280,691 240,668 200,691 200,737"/>
      <polygon class="hex" points="240,680 280,657 280,611 240,588 200,611 200,657"/>
      <polygon class="hex" points="320,720 360,697 360,651 320,628 280,651 280,697"/>
      <polygon class="hex-bold" points="320,800 360,777 360,731 320,708 280,731 280,777"/>
      <polygon class="hex" points="0,800 40,777 40,731 0,708 -40,731 -40,777"/>
      <polygon class="hex" points="80,840 120,817 120,771 80,748 40,771 40,817"/>
      <polygon class="hex" points="240,840 280,817 280,771 240,748 200,771 200,817"/>
      <polygon class="hex-bold" points="160,880 200,857 200,811 160,788 120,811 120,857"/>
      <polygon class="hex" points="320,880 360,857 360,811 320,788 280,811 280,857"/>
      <polygon class="hex" points="400,760 440,737 440,691 400,668 360,691 360,737"/>
      <polygon class="hex" points="400,840 440,817 440,771 400,748 360,771 360,817"/>
      <!-- Extended outer ring -->
      <polygon class="hex" points="80,600 120,577 120,531 80,508 40,531 40,577"/>
      <polygon class="hex" points="160,640 200,617 200,571 160,548 120,571 120,617"/>
      <polygon class="hex-bold" points="240,600 280,577 280,531 240,508 200,531 200,577"/>
      <polygon class="hex" points="320,640 360,617 360,571 320,548 280,571 280,617"/>
      <polygon class="hex" points="400,680 440,657 440,611 400,588 360,611 360,657"/>
      <polygon class="hex" points="480,720 520,697 520,651 480,628 440,651 440,697"/>
      <polygon class="hex-bold" points="480,800 520,777 520,731 480,708 440,731 440,777"/>
      <polygon class="hex" points="400,920 440,897 440,851 400,828 360,851 360,897"/>
      <polygon class="hex" points="80,920 120,897 120,851 80,828 40,851 40,897"/>
      <polygon class="hex" points="240,920 280,897 280,851 240,828 200,851 200,897"/>
      <polygon class="hex-bold" points="0,640 40,617 40,571 0,548 -40,571 -40,617"/>
      <polygon class="hex" points="-80,680 -40,657 -40,611 -80,588 -120,611 -120,657"/>
      <polygon class="hex" points="-80,760 -40,737 -40,691 -80,668 -120,691 -120,737"/>
      <polygon class="hex" points="0,880 40,857 40,811 0,788 -40,811 -40,857"/>
      <polygon class="hex" points="160,560 200,537 200,491 160,468 120,491 120,537"/>
      <polygon class="hex-bold" points="320,560 360,537 360,491 320,468 280,491 280,537"/>
      <polygon class="hex" points="480,640 520,617 520,571 480,548 440,571 440,617"/>
      <polygon class="hex" points="560,680 600,657 600,611 560,588 520,611 520,657"/>
      <polygon class="hex" points="560,760 600,737 600,691 560,668 520,691 520,737"/>
    </g>
    <g opacity="0.09">
      <line class="line" x1="120" y1="657" x2="160" y2="628"/>
      <line class="line" x1="120" y1="697" x2="120" y2="651"/>
      <line class="line" x1="200" y1="697" x2="240" y2="668"/>
      <line class="line" x1="280" y1="657" x2="320" y2="628"/>
      <line class="line" x1="200" y1="777" x2="240" y2="748"/>
      <line class="line" x1="360" y1="697" x2="400" y2="668"/>
      <line class="line" x1="120" y1="817" x2="160" y2="788"/>
      <line class="line" x1="280" y1="817" x2="320" y2="788"/>
      <line class="line" x1="360" y1="777" x2="400" y2="748"/>
      <line class="line" x1="120" y1="577" x2="160" y2="548"/>
      <line class="line" x1="280" y1="577" x2="320" y2="548"/>
      <line class="line" x1="440" y1="657" x2="480" y2="628"/>
      <line class="line" x1="440" y1="737" x2="480" y2="708"/>
      <line class="line" x1="200" y1="537" x2="240" y2="508"/>
      <line class="line" x1="360" y1="537" x2="400" y2="508"/>
      <line class="line" x1="520" y1="657" x2="560" y2="628"/>
      <line class="line" x1="440" y1="817" x2="480" y2="788"/>
      <circle class="dot" cx="120" cy="657" r="2.5"/>
      <circle class="dot" cx="200" cy="697" r="2"/>
      <circle class="dot" cx="280" cy="657" r="1.5"/>
      <circle class="dot" cx="360" cy="697" r="2.5"/>
      <circle class="dot" cx="120" cy="737" r="1.5"/>
      <circle class="dot" cx="200" cy="777" r="2"/>
      <circle class="dot" cx="280" cy="737" r="2.5"/>
      <circle class="dot" cx="360" cy="777" r="1.5"/>
      <circle class="dot" cx="440" cy="737" r="2"/>
      <circle class="dot-ring" cx="160" cy="628" r="3.5"/>
      <circle class="dot-ring" cx="320" cy="628" r="3.5"/>
      <circle class="dot" cx="40" cy="697" r="1.5"/>
      <circle class="dot" cx="40" cy="777" r="2"/>
      <circle class="dot" cx="120" cy="817" r="1.5"/>
      <circle class="dot" cx="280" cy="817" r="1.5"/>
      <circle class="dot" cx="120" cy="577" r="2"/>
      <circle class="dot" cx="280" cy="577" r="1.5"/>
      <circle class="dot" cx="440" cy="657" r="2"/>
      <circle class="dot" cx="520" cy="697" r="1.5"/>
      <circle class="dot" cx="200" cy="537" r="1.5"/>
      <circle class="dot" cx="360" cy="537" r="2"/>
      <circle class="dot" cx="520" cy="657" r="1.5"/>
      <circle class="dot" cx="440" cy="817" r="2"/>
      <circle class="dot-ring" cx="480" cy="628" r="3"/>
      <circle class="dot-ring" cx="160" cy="548" r="3"/>
    </g>
  </g>

  <!-- Scattered mid-area -->
  <g opacity="0.04">
    <polygon class="hex" points="380,460 410,443 410,409 380,392 350,409 350,443"/>
    <polygon class="hex" points="440,500 470,483 470,449 440,432 410,449 410,483"/>
    <polygon class="hex" points="280,380 310,363 310,329 280,312 250,329 250,363"/>
    <polygon class="hex" points="500,420 530,403 530,369 500,352 470,369 470,403"/>
    <polygon class="hex" points="340,340 370,323 370,289 340,272 310,289 310,323"/>
    <circle class="dot" cx="410" cy="443" r="1.5"/>
    <circle class="dot" cx="310" cy="363" r="1.5"/>
    <circle class="dot" cx="530" cy="403" r="1.5"/>
    <line class="line" x1="410" y1="443" x2="440" y2="432"/>
    <line class="line" x1="310" y1="329" x2="340" y2="312"/>
    <line class="line" x1="470" y1="449" x2="500" y2="432"/>
  </g>

  <!-- Top-right cluster -->
  <g mask="url(#maskTR)">
    <g opacity="0.11">
      <polygon class="hex-bold" points="720,120 760,97 760,51 720,28 680,51 680,97"/>
      <polygon class="hex" points="800,80 840,57 840,11 800,-12 760,11 760,57"/>
      <polygon class="hex" points="800,160 840,137 840,91 800,68 760,91 760,137"/>
      <polygon class="hex-bold" points="880,120 920,97 920,51 880,28 840,51 840,97"/>
      <polygon class="hex" points="880,200 920,177 920,131 880,108 840,131 840,177"/>
      <polygon class="hex" points="720,200 760,177 760,131 720,108 680,131 680,177"/>
      <polygon class="hex-bold" points="640,160 680,137 680,91 640,68 600,91 600,137"/>
      <polygon class="hex" points="640,80 680,57 680,11 640,-12 600,11 600,57"/>
      <polygon class="hex" points="560,120 600,97 600,51 560,28 520,51 520,97"/>
      <polygon class="hex" points="800,240 840,217 840,171 800,148 760,171 760,217"/>
      <polygon class="hex" points="720,280 760,257 760,211 720,188 680,211 680,257"/>
      <polygon class="hex-bold" points="880,280 920,257 920,211 880,188 840,211 840,257"/>
      <polygon class="hex" points="640,240 680,217 680,171 640,148 600,171 600,217"/>
      <polygon class="hex" points="560,200 600,177 600,131 560,108 520,131 520,177"/>
      <!-- Extended outer ring -->
      <polygon class="hex" points="720,40 760,17 760,-29 720,-52 680,-29 680,17"/>
      <polygon class="hex-bold" points="880,40 920,17 920,-29 880,-52 840,-29 840,17"/>
      <polygon class="hex" points="960,80 1000,57 1000,11 960,-12 920,11 920,57"/>
      <polygon class="hex" points="960,160 1000,137 1000,91 960,68 920,91 920,137"/>
      <polygon class="hex-bold" points="960,240 1000,217 1000,171 960,148 920,171 920,217"/>
      <polygon class="hex" points="880,360 920,337 920,291 880,268 840,291 840,337"/>
      <polygon class="hex" points="800,320 840,297 840,251 800,228 760,251 760,297"/>
      <polygon class="hex-bold" points="720,360 760,337 760,291 720,268 680,291 680,337"/>
      <polygon class="hex" points="640,320 680,297 680,251 640,228 600,251 600,297"/>
      <polygon class="hex" points="560,280 600,257 600,211 560,188 520,211 520,257"/>
      <polygon class="hex" points="480,120 520,97 520,51 480,28 440,51 440,97"/>
      <polygon class="hex-bold" points="480,200 520,177 520,131 480,108 440,131 440,177"/>
      <polygon class="hex" points="560,40 600,17 600,-29 560,-52 520,-29 520,17"/>
      <polygon class="hex" points="480,40 520,17 520,-29 480,-52 440,-29 440,17"/>
      <polygon class="hex" points="960,320 1000,297 1000,251 960,228 920,251 920,297"/>
      <polygon class="hex-bold" points="640,0 680,-23 680,-69 640,-92 600,-69 600,-23"/>
      <polygon class="hex" points="720,-40 760,-63 760,-109 720,-132 680,-109 680,-63"/>
      <polygon class="hex" points="800,-20 840,-43 840,-89 800,-112 760,-89 760,-43"/>
    </g>
    <g opacity="0.08">
      <line class="line" x1="760" y1="97" x2="800" y2="68"/>
      <line class="line" x1="760" y1="57" x2="760" y2="91"/>
      <line class="line" x1="840" y1="97" x2="880" y2="68"/>
      <line class="line" x1="680" y1="97" x2="720" y2="68"/>
      <line class="line" x1="680" y1="137" x2="680" y2="91"/>
      <line class="line" x1="600" y1="97" x2="640" y2="68"/>
      <line class="line" x1="760" y1="177" x2="800" y2="148"/>
      <line class="line" x1="840" y1="177" x2="880" y2="148"/>
      <line class="line" x1="680" y1="257" x2="640" y2="240"/>
      <line class="line" x1="760" y1="257" x2="800" y2="240"/>
      <line class="line" x1="600" y1="177" x2="560" y2="148"/>
      <line class="line" x1="920" y1="97" x2="960" y2="68"/>
      <line class="line" x1="920" y1="177" x2="960" y2="148"/>
      <line class="line" x1="920" y1="257" x2="960" y2="228"/>
      <line class="line" x1="760" y1="337" x2="800" y2="308"/>
      <line class="line" x1="680" y1="297" x2="640" y2="280"/>
      <line class="line" x1="520" y1="97" x2="480" y2="68"/>
      <line class="line" x1="520" y1="177" x2="480" y2="148"/>
      <line class="line" x1="840" y1="337" x2="880" y2="308"/>
      <circle class="dot" cx="760" cy="97" r="2.5"/>
      <circle class="dot" cx="840" cy="97" r="2"/>
      <circle class="dot" cx="680" cy="97" r="1.5"/>
      <circle class="dot" cx="600" cy="97" r="2.5"/>
      <circle class="dot" cx="760" cy="177" r="2"/>
      <circle class="dot" cx="840" cy="177" r="1.5"/>
      <circle class="dot" cx="680" cy="177" r="2.5"/>
      <circle class="dot" cx="920" cy="97" r="1.5"/>
      <circle class="dot" cx="920" cy="177" r="2"/>
      <circle class="dot" cx="920" cy="257" r="1.5"/>
      <circle class="dot-ring" cx="800" cy="68" r="3.5"/>
      <circle class="dot-ring" cx="640" cy="68" r="3.5"/>
      <circle class="dot" cx="680" cy="257" r="1.5"/>
      <circle class="dot" cx="760" cy="257" r="2"/>
      <circle class="dot" cx="600" cy="177" r="1.5"/>
      <circle class="dot" cx="520" cy="97" r="1.5"/>
      <circle class="dot" cx="960" cy="97" r="2"/>
      <circle class="dot" cx="960" cy="177" r="1.5"/>
      <circle class="dot" cx="760" cy="337" r="2"/>
      <circle class="dot" cx="840" cy="337" r="1.5"/>
      <circle class="dot" cx="680" cy="337" r="2"/>
      <circle class="dot" cx="520" cy="177" r="1.5"/>
      <circle class="dot" cx="440" cy="97" r="1.5"/>
      <circle class="dot-ring" cx="960" cy="68" r="3"/>
      <circle class="dot-ring" cx="480" cy="108" r="3"/>
    </g>
  </g>

  <!-- Bottom-right accent -->
  <g mask="url(#maskBR)">
    <g opacity="0.07">
      <polygon class="hex" points="700,700 730,683 730,649 700,632 670,649 670,683"/>
      <polygon class="hex-bold" points="780,740 810,723 810,689 780,672 750,689 750,723"/>
      <polygon class="hex" points="860,700 890,683 890,649 860,632 830,649 830,683"/>
      <polygon class="hex" points="780,660 810,643 810,609 780,592 750,609 750,643"/>
      <polygon class="hex-bold" points="700,780 730,763 730,729 700,712 670,729 670,763"/>
      <polygon class="hex" points="860,780 890,763 890,729 860,712 830,729 830,763"/>
      <polygon class="hex" points="780,820 810,803 810,769 780,752 750,769 750,803"/>
      <polygon class="hex-bold" points="940,740 970,723 970,689 940,672 910,689 910,723"/>
      <polygon class="hex" points="940,660 970,643 970,609 940,592 910,609 910,643"/>
      <polygon class="hex" points="860,860 890,843 890,809 860,792 830,809 830,843"/>
      <polygon class="hex" points="700,860 730,843 730,809 700,792 670,809 670,843"/>
      <polygon class="hex-bold" points="940,820 970,803 970,769 940,752 910,769 910,803"/>
      <polygon class="hex" points="620,740 650,723 650,689 620,672 590,689 590,723"/>
      <polygon class="hex" points="620,660 650,643 650,609 620,592 590,609 590,643"/>
      <circle class="dot" cx="730" cy="683" r="2"/>
      <circle class="dot" cx="810" cy="723" r="1.5"/>
      <circle class="dot" cx="810" cy="643" r="1.5"/>
      <circle class="dot" cx="730" cy="763" r="2"/>
      <circle class="dot" cx="890" cy="763" r="1.5"/>
      <circle class="dot" cx="810" cy="803" r="2"/>
      <circle class="dot" cx="970" cy="723" r="1.5"/>
      <circle class="dot" cx="650" cy="723" r="1.5"/>
      <circle class="dot" cx="890" cy="843" r="2"/>
      <line class="line" x1="730" y1="683" x2="780" y2="672"/>
      <line class="line" x1="810" y1="689" x2="860" y2="672"/>
      <line class="line" x1="810" y1="643" x2="780" y2="632"/>
      <line class="line" x1="730" y1="729" x2="780" y2="712"/>
      <line class="line" x1="890" y1="729" x2="940" y2="712"/>
      <line class="line" x1="810" y1="769" x2="860" y2="752"/>
      <line class="line" x1="650" y1="689" x2="700" y2="672"/>
      <line class="line" x1="890" y1="809" x2="940" y2="792"/>
    </g>
  </g>

  <!-- Top-left accent -->
  <g mask="url(#maskTL)">
    <g opacity="0.06">
      <polygon class="hex" points="120,180 150,163 150,129 120,112 90,129 90,163"/>
      <polygon class="hex" points="200,140 230,123 230,89 200,72 170,89 170,123"/>
      <polygon class="hex-bold" points="120,100 150,83 150,49 120,32 90,49 90,83"/>
      <polygon class="hex" points="40,140 70,123 70,89 40,72 10,89 10,123"/>
      <polygon class="hex" points="200,220 230,203 230,169 200,152 170,169 170,203"/>
      <polygon class="hex-bold" points="280,180 310,163 310,129 280,112 250,129 250,163"/>
      <polygon class="hex" points="280,100 310,83 310,49 280,32 250,49 250,83"/>
      <polygon class="hex" points="40,60 70,43 70,9 40,-8 10,9 10,43"/>
      <polygon class="hex-bold" points="120,20 150,3 150,-31 120,-48 90,-31 90,3"/>
      <polygon class="hex" points="200,60 230,43 230,9 200,-8 170,9 170,43"/>
      <polygon class="hex" points="40,220 70,203 70,169 40,152 10,169 10,203"/>
      <polygon class="hex" points="120,260 150,243 150,209 120,192 90,209 90,243"/>
      <polygon class="hex-bold" points="280,260 310,243 310,209 280,192 250,209 250,243"/>
      <polygon class="hex" points="360,220 390,203 390,169 360,152 330,169 330,203"/>
      <polygon class="hex" points="360,140 390,123 390,89 360,72 330,89 330,123"/>
      <circle class="dot" cx="150" cy="163" r="1.5"/>
      <circle class="dot" cx="150" cy="83" r="2"/>
      <circle class="dot" cx="70" cy="123" r="1.5"/>
      <circle class="dot" cx="230" cy="123" r="2"/>
      <circle class="dot" cx="230" cy="203" r="1.5"/>
      <circle class="dot" cx="310" cy="163" r="1.5"/>
      <circle class="dot" cx="150" cy="243" r="2"/>
      <circle class="dot" cx="310" cy="243" r="1.5"/>
      <circle class="dot" cx="390" cy="203" r="1.5"/>
      <circle class="dot" cx="70" cy="43" r="1.5"/>
      <circle class="dot" cx="230" cy="43" r="1.5"/>
      <line class="line" x1="150" y1="129" x2="200" y2="112"/>
      <line class="line" x1="150" y1="83" x2="120" y2="72"/>
      <line class="line" x1="230" y1="123" x2="280" y2="112"/>
      <line class="line" x1="150" y1="209" x2="200" y2="192"/>
      <line class="line" x1="310" y1="129" x2="360" y2="112"/>
      <line class="line" x1="70" y1="89" x2="40" y2="72"/>
      <line class="line" x1="310" y1="209" x2="360" y2="192"/>
      <line class="line" x1="70" y1="169" x2="40" y2="152"/>
    </g>
  </g>
</svg>